<svg width="74" height="221" viewBox="0 0 74 221" fill="none" xmlns="http://www.w3.org/2000/svg">
<g clip-path="url(#clip0_516_235)">
<path d="M3.7666 134.727L4.02462 131.131L65.9493 31.8579L67.3942 32.7828L3.7666 134.727Z" fill="#EFEBE1"/>
<path d="M70.6458 0C70.6458 0 72.2971 18.7549 35.6068 35.5573C6.60224e-05 51.7945 -2.42532 81.1858 1.23856 95.7787C1.23856 95.7787 8.72113 72.8103 41.3348 57.8063C74.0517 42.8024 78.438 12.8458 70.6458 0Z" fill="#EFEBE1"/>
<path d="M22.8604 104.154C22.8604 104.154 20.951 107.032 22.0863 107.597L18.9901 110.886L17.958 108.727L22.8088 104.154H22.8604Z" fill="#EFEBE1"/>
<path d="M51.8623 54.4666C51.8623 54.4666 53.7716 51.5891 52.6364 51.0239L55.7326 47.7354L56.7647 49.8935L51.9139 54.4666H51.8623Z" fill="#EFEBE1"/>
<path d="M3.76758 197.364L4.0256 193.715L65.9503 94.4941L67.3952 95.419L3.76758 197.364Z" fill="#EFEBE1"/>
<path d="M70.6458 62.6362C70.6458 62.6362 72.2971 81.3912 35.6068 98.1936C6.60224e-05 114.431 -2.42532 143.822 1.23856 158.415C1.23856 158.415 8.72113 135.447 41.3348 120.443C74.0001 105.439 78.438 75.4307 70.6458 62.6362Z" fill="#EFEBE1"/>
<path d="M70.6458 125.221C70.6458 125.221 72.2971 143.976 35.6068 160.779C6.60224e-05 177.067 -2.42532 206.407 1.23856 221C1.23856 221 8.72113 198.031 41.3348 183.028C74.0001 168.024 78.438 138.016 70.6458 125.221Z" fill="#EFEBE1"/>
<path d="M22.8604 166.791C22.8604 166.791 20.951 169.668 22.0863 170.233L18.9901 173.522L17.958 171.364L22.8088 166.791H22.8604Z" fill="#EFEBE1"/>
<path d="M51.8623 117.103C51.8623 117.103 53.7716 114.225 52.6364 113.66L55.7326 110.372L56.7647 112.53L51.9139 117.103H51.8623Z" fill="#EFEBE1"/>
</g>
<defs>
<clipPath id="clip0_516_235">
<rect width="74" height="221" fill="white"/>
</clipPath>
</defs>
</svg>
